<svg id="back-to-up" xmlns="http://www.w3.org/2000/svg" width="87" height="87" viewBox="0 0 87 87">
  <circle id="Ellipse_532" data-name="Ellipse 532" cx="43.5" cy="43.5" r="43.5" fill="#808285"/>
  <path id="fi-rr-arrow-circle-left" d="M43.673,21.836A21.837,21.837,0,1,0,21.837,43.673,21.836,21.836,0,0,0,43.673,21.836Zm-40.034,0a18.2,18.2,0,1,1,18.2,18.2,18.2,18.2,0,0,1-18.2-18.2ZM19.8,32.221a1.82,1.82,0,0,0,0-2.573l-5.99-5.992,18.949-.013a1.82,1.82,0,1,0,0-3.639l-18.95.013L19.8,14.024a1.82,1.82,0,1,0-2.528-2.617l-.045.044L10.7,17.975a5.459,5.459,0,0,0,0,7.721h0l6.525,6.525A1.82,1.82,0,0,0,19.8,32.221Z" transform="translate(65.836 21.882) rotate(90)" fill="#fff"/>
</svg>
