<svg xmlns="http://www.w3.org/2000/svg" width="12" height="12"
     viewBox="0 0 21.262 21.259">
    <path id="Star"
          d="M11.661,1c1,0,2.572,4.542,3.139,6.288a1,1,0,0,0,.919.691c1.822.062,6.543.325,6.543,1.392,0,1.052-3.364,3.7-4.74,4.733a1,1,0,0,0-.349,1.107c.56,1.733,1.9,6.228,1.042,6.937s-4.481-2.061-5.956-3.24a1,1,0,0,0-1.254,0c-1.476,1.179-5.106,3.939-5.9,3.241s.471-5.219,1-6.946a1,1,0,0,0-.354-1.09C4.382,13.08,1,10.425,1,9.371s4.731-1.33,6.549-1.392A1,1,0,0,0,8.465,7.3C9.045,5.554,10.659,1,11.661,1Z"
          transform="translate(-1 -1)" fill="#ffcd00"/>
</svg>
